<svg width="1536" height="1024" viewBox="0 0 1536 1024" fill="none" xmlns="http://www.w3.org/2000/svg">
  <defs>
    <linearGradient id="bg" x1="0" y1="0" x2="1" y2="1"><stop stop-color="#090B10"/><stop offset="1" stop-color="#0E1117"/></linearGradient>
    <linearGradient id="blueMetal" x1="0" y1="0" x2="1" y2="1"><stop stop-color="#0A2D7A"/><stop offset="0.2" stop-color="#04A7FF"/><stop offset="0.48" stop-color="#0057D9"/><stop offset="0.78" stop-color="#071A50"/><stop offset="1" stop-color="#001033"/></linearGradient>
    <linearGradient id="goldMetal" x1="0" y1="0" x2="1" y2="1"><stop stop-color="#5B3300"/><stop offset="0.22" stop-color="#FFD86A"/><stop offset="0.5" stop-color="#D99918"/><stop offset="0.82" stop-color="#6C3A00"/><stop offset="1" stop-color="#FFE891"/></linearGradient>
    <linearGradient id="whiteMetal" x1="0" y1="0" x2="0" y2="1"><stop stop-color="#FFFFFF"/><stop offset="0.5" stop-color="#D8DEE8"/><stop offset="1" stop-color="#FFFFFF"/></linearGradient>
    <filter id="premiumShadow" x="-30%" y="-30%" width="160%" height="160%"><feDropShadow dx="0" dy="12" stdDeviation="9" flood-color="#000" flood-opacity="0.55"/></filter>
    <filter id="fineGlow" x="-20%" y="-20%" width="140%" height="140%"><feDropShadow dx="0" dy="0" stdDeviation="2.2" flood-color="#0B8EFF" flood-opacity="0.45"/></filter>
  </defs>
  <rect width="1536" height="1024" fill="url(#bg)"/>
  <g transform="translate(768 330)" filter="url(#premiumShadow)">
    <path d="M-183 -126 A214 214 0 0 1 183 -126" stroke="url(#goldMetal)" stroke-width="25" stroke-linecap="butt"/>
    <path d="M-253 18 A263 263 0 0 0 -90 254" stroke="url(#goldMetal)" stroke-width="24" stroke-linecap="butt"/>
    <path d="M253 18 A263 263 0 0 1 90 254" stroke="url(#goldMetal)" stroke-width="24" stroke-linecap="butt"/>
    <path d="M-114 -7 A128 128 0 0 1 -39 -71" stroke="url(#goldMetal)" stroke-width="19" stroke-linecap="butt"/>
    <path d="M114 -7 A128 128 0 0 0 39 -71" stroke="url(#goldMetal)" stroke-width="19" stroke-linecap="butt"/>
    <path d="M-272 -62 H-178 L39 276 H-54 L-304 -62 H-272Z" fill="url(#blueMetal)" stroke="#03122C" stroke-width="5" filter="url(#fineGlow)"/>
    <path d="M178 -62 H272 L55 276 H-38 L178 -62Z" fill="url(#goldMetal)" stroke="#4A2A00" stroke-width="5"/>
    <g filter="url(#premiumShadow)">
      <circle cx="0" cy="-112" r="14" fill="url(#goldMetal)"/>
      <circle cx="0" cy="-61" r="14" fill="url(#goldMetal)"/>
      <circle cx="0" cy="-10" r="14" fill="url(#goldMetal)"/>
      <circle cx="0" cy="45" r="14" fill="url(#blueMetal)"/>
      <circle cx="0" cy="98" r="14" fill="url(#blueMetal)"/>
      <circle cx="0" cy="151" r="14" fill="url(#blueMetal)"/>
    </g>
  </g>
  <g transform="translate(768 790)" text-anchor="middle" filter="url(#premiumShadow)">
    <text x="-150" y="0" font-family="Montserrat, Arial, sans-serif" font-size="118" font-weight="900" letter-spacing="22" fill="url(#blueMetal)">VERIS</text>
    <text x="318" y="0" font-family="Montserrat, Arial, sans-serif" font-size="118" font-weight="900" letter-spacing="18" fill="url(#goldMetal)">ZONE</text>
    <line x1="-558" y1="70" x2="-402" y2="70" stroke="#FFFFFF" stroke-width="4" opacity="0.95"/>
    <line x1="402" y1="70" x2="558" y2="70" stroke="#FFFFFF" stroke-width="4" opacity="0.95"/>
    <text x="0" y="88" font-family="Montserrat, Arial, sans-serif" font-size="36" font-weight="500" letter-spacing="20" fill="#FFFFFF">GOVERN WITH CERTAINTY.</text>
  </g>
</svg>
